<svg xmlns="http://www.w3.org/2000/svg" width="278" height="61" viewBox="0 0 278 61">
    <g fill="none" fill-rule="evenodd">
        <path fill="#6F6F6E" d="M39.797 4.365l-2.18-1.332L33.4 5.087l4.98 5.257 2.396.115-3.283-4.07zM50.129 40.19l-3.302 2.791 3.651.653 1.366 6.317 2.142-2.86-.693-5.643zM38.539 46.007l4.12 5.372-2.981 8.418 4.236-2.768 2.698-7.346-3.489-4.351zM29.51 52.03l-9.263 7.7 6.633.975 8.027-7.769-1.675-8.162-6.026-2.048zM19.664 32.093l3.855 5.402-3.321 9.717L6.96 48.841 1.863 41.7l13.148-.652zM0 24.532l9.634 6.627 9.104-6.043.11-5.795-8.586 4.49-9.843-7.07zM22.898 14.158l-10.307.51-2.886-8.535 3.91-3.746 3.049 6.862 8.138 1.016zM23.646.504l-.513 5.605 5.607 3.326 4.353-.789-5.119-3.652.582-4.93zM45.66 8.506l-2.1.1.029 2.831L46.59 15.3l-.699-3.211 1.886-.906z"/>
        <path fill="#FFC425" d="M40.072 10.415l-3.27-4.085 2.541-2.247.917.542-2.077 1.823 3.285 4.071zM51.43 50.388l-1.37-6.322-3.736-.677 1-.833 3.574.644 1.364 6.334zM38.017 46.09l4.08 5.378-3.108 8.772 1.396-.916 2.835-8.033-4.098-5.367zM28.95 51.844l-9.417 7.8 1.36.194 9.177-7.625-2.285-9.288-1.195-.39zM2.195 42.174l-.75-.972 13.254-.638 4.639-8.943.666.916-4.682 8.997zM.362 17.345l9.859 7.052 8.644-4.525-.026-1.11-8.536 4.463-9.859-7.103zM24.568 10.769l-8.247-1.058-3.109-6.982.813-.688 2.98 6.747 8.043 1.044zM28.028.125l-.586 5.103 5.004 3.561 1.312-.311-5.253-3.72L29.048 0zM45.844 14.373l-.416-3.222 2.083-.277.542.624-1.736.542.528 3.603z"/>
        <path fill="#07601F" d="M29.722 16.624h10.68c5.873 0 8.486 2.192 8.486 8.175v4.41c0 5.76-1.854 8.484-7.727 8.484H29.72V16.624zm5.62 16.18h4.919c2.08 0 2.839-1.375 2.839-3.594V24.8c0-2.726-.872-3.288-2.84-3.288h-4.917v11.293zM56.9 25.08h8.992v3.904H56.9v4.103h9.779v4.607h-15.4v-21.07h15.204v4.607H56.9zM75.309 37.693h-5.62V16.624h8.908l4.018 13.232h.198l3.82-13.232h9.135v21.07h-5.62l.562-16.154h-.198l-5.339 16.153h-4.861L74.915 21.54h-.168z"/>
        <g fill="#07601F">
            <path d="M99.087 37.693V16.624h10.595c5.226 0 7.194 2.22 7.194 7.725 0 5.928-1.32 7.951-7.194 7.951h-4.975v5.393h-5.62zm9.47-10.282c2.22-.084 2.53-.336 2.53-3.062 0-2.162-.337-2.837-2.53-2.837h-3.85v5.9h3.85zM128.765 24.883c6.239.45 7.785 1.236 7.785 6.068 0 3.484.14 6.91-9.134 6.91-5.368 0-8.936-.111-8.936-7.022h5.395c0 2.191.788 2.416 3.54 2.416 2.643 0 3.513-.169 3.513-1.939 0-1.826-.308-1.798-2.95-1.966l-1.236-.085c-5.2-.365-8.234-.336-8.234-6.376s3.4-6.433 8.908-6.433c4.61 0 8.544.084 8.544 5.9v.87h-5.397c0-2.163-.898-2.163-3.147-2.163-3.035 0-3.288.617-3.288 1.798 0 1.685.815 1.74 2.304 1.854l2.333.168z"/>
        </g>
        <path fill="#07601F" d="M144.42 25.08h8.993v3.904h-8.993v4.103h9.78v4.607h-15.4v-21.07h15.203v4.607h-9.583zM168.703 30.305v7.388h-5.622v-7.388l-7.475-13.68h6.436l3.765 8.118h.198l3.877-8.118h6.52zM208.33 16.624h5.649l-4.666 21.069h-8.121l-2.867-13.203h-.225l-3.063 13.203H187l-4.552-21.069h5.705l3.035 16.237h.196l3.963-16.237h5.846l3.765 16.237h.198zM214.655 30.136v-5.955c0-6.49 4.047-7.725 9.752-7.725 5.705 0 9.752 1.235 9.752 7.725v5.955c0 6.49-4.047 7.726-9.752 7.726-5.705 0-9.752-1.236-9.752-7.726m13.714-.617V24.77c0-3.117-1.04-3.426-3.962-3.426-2.923 0-3.878.309-3.962 3.426v4.749c.084 3.146 1.04 3.455 3.962 3.455s3.962-.31 3.962-3.455M236.015 30.136v-5.955c0-6.49 4.047-7.725 9.751-7.725 5.707 0 9.753 1.235 9.753 7.725v5.955c0 6.49-4.046 7.726-9.753 7.726-5.704 0-9.751-1.236-9.751-7.726m13.715-.617V24.77c0-3.117-1.04-3.426-3.964-3.426-2.922 0-3.877.309-3.961 3.426v4.749c.084 3.146 1.039 3.455 3.961 3.455 2.924 0 3.964-.31 3.964-3.455M257.91 16.624h10.678c5.874 0 8.489 2.192 8.489 8.175v4.41c0 5.76-1.855 8.484-7.73 8.484h-11.438V16.624zm5.62 16.18h4.918c2.08 0 2.84-1.375 2.84-3.594V24.8c0-2.726-.873-3.288-2.84-3.288h-4.918v11.293z"/>
        <path fill="#6F6F6E" d="M71.009 58.06h2.08l-2.655-10.123h-2.28L71.01 58.06zm2.28-.688l1.32-6.008 1.478 6.696h2.065l-2.481-10.123h-2.18l-1.22 5.55 1.019 3.885zm5.064.014l2.668-9.449h-2.252l-1.391 5.378.975 4.071zm6.255-.903c-.46-.072-1.607-.287-1.607-2.323 0-.444 0-2.122 1.607-2.337v-1.778c-2.626.201-3.873 2.022-3.873 4.13 0 .817.243 3.942 3.873 4.128v-1.82zm.371 1.82c2.597-.2 3.83-2.164 3.83-4.214 0-1.75-.96-3.886-3.83-4.044v1.778c.991.115 1.566.875 1.566 2.266 0 2.007-1.077 2.28-1.566 2.394v1.82zm4.95-.243h2.252v-7.756H89.93v7.756zm2.639-5.362c.245-.302.574-.56 1.463-.56.23 0 .33.015.474.043v-2.02c-.115-.015-.23-.03-.402-.03-1.062 0-1.434.487-1.535.63v1.937zm2.583 5.362h2.223V47.937h-2.223V58.06zm2.624-3.04l2.252 3.04h2.826l-3.529-4.531 3.3-3.24h-2.869l-1.98 2.222v2.51zm5.61 3.04h2.223v-7.77h-2.223v7.77zm0-8.173h2.223v-1.963h-2.223v1.963zm3.728 8.173h2.237v-7.756h-2.237v7.756zm2.61-5.477c.13-.157.431-.53 1.062-.53 1.076 0 1.148.974 1.148 1.334v4.673h2.252v-4.774c-.015-.803-.043-1.893-1.047-2.61-.416-.3-.976-.502-1.636-.502-.818 0-1.29.286-1.779.645v1.764zm10.658 2.451c-.33.417-.803.674-1.32.674-.903 0-1.62-.73-1.62-1.906 0-1.333.918-1.908 1.706-1.908.704 0 1.062.445 1.234.646v-1.736a2.523 2.523 0 0 0-1.822-.73c-1.835 0-3.284 1.52-3.284 3.8 0 1.978 1.118 3.713 3.299 3.713.818 0 1.306-.258 1.807-.573v-1.98zm2.596-4.745h-2.223V57.3c0 .56-.014 1.607-1.462 1.607-.345 0-.617-.072-.833-.187a.943.943 0 0 1-.416-.53h-2.366c.057.287.143.816.488 1.304.816 1.161 2.467 1.161 2.925 1.161 1.177 0 3.055-.257 3.672-1.878.173-.487.2-.888.215-1.778v-6.71zm5.925 1.664v4.014c.029 1.047.114 2.165 2.209 2.165.43 0 .674-.03 1.477-.1v-1.72c-.344.028-.43.028-.588.028-.846 0-.889-.216-.874-1.162v-3.225h1.462v-1.664h-1.462v-1.405h-2.224v1.405h-1.076v1.664h1.076zm8.047 4.53c-.46-.072-1.607-.287-1.607-2.323 0-.444 0-2.122 1.607-2.337v-1.778c-2.626.201-3.873 2.022-3.873 4.13 0 .817.244 3.942 3.873 4.128v-1.82zm.372 1.82c2.597-.2 3.83-2.164 3.83-4.214 0-1.75-.96-3.886-3.83-4.044v1.778c.99.115 1.564.875 1.564 2.266 0 2.007-1.076 2.28-1.564 2.394v1.82zm9.682-3.269c-.329.417-.803.674-1.319.674-.904 0-1.621-.73-1.621-1.906 0-1.333.918-1.908 1.707-1.908.703 0 1.062.445 1.233.646v-1.736a2.518 2.518 0 0 0-1.82-.73c-1.837 0-3.285 1.52-3.285 3.8 0 1.978 1.119 3.713 3.299 3.713.818 0 1.306-.258 1.806-.573v-1.98zm2.597-4.745h-2.224V57.3c0 .56-.013 1.607-1.462 1.607-.345 0-.617-.072-.831-.187a.94.94 0 0 1-.417-.53H142.3c.058.287.143.816.488 1.304.818 1.161 2.467 1.161 2.926 1.161 1.176 0 3.055-.257 3.672-1.878.172-.487.202-.888.215-1.778v-6.71zm6.612 5.349c-.1.2-.429.845-1.434.845-1.391 0-1.792-1.305-1.792-2.409 0-1.763.917-2.28 1.735-2.28.473 0 .919.201 1.177.545.1.144.243.402.314.803h-2.753c-.072.302-.087.56-.087.875.015.33.03.545.087.804h5.077c0-1.234-.214-2.496-.903-3.4-.56-.76-1.52-1.361-2.883-1.361-2.381 0-4.002 1.735-4.002 4.144 0 2.193 1.334 4.071 3.973 4.071 1.162 0 2.309-.4 3.055-1.29.403-.487.574-.933.675-1.19l-2.239-.157zM160 51.953v4.014c.028 1.047.114 2.165 2.208 2.165.431 0 .674-.03 1.478-.1v-1.72c-.344.028-.43.028-.589.028-.845 0-.889-.216-.874-1.162v-3.225h1.463v-1.664h-1.463v-1.405H160v1.405h-1.076v1.664H160zm4.532 6.107h2.21V47.924h-2.21V58.06zm2.568-5.591c.2-.187.53-.503 1.119-.503 1.176 0 1.162 1.076 1.148 1.678v4.416h2.208v-5.046c-.014-.646-.029-1.75-.99-2.453-.387-.286-.946-.488-1.578-.488-.545 0-1.247.173-1.907.689v1.707zm11.088 3.169c-.1.2-.43.845-1.435.845-1.392 0-1.793-1.305-1.793-2.409 0-1.763.918-2.28 1.735-2.28.475 0 .92.201 1.177.545.1.144.244.402.316.803h-2.754c-.073.302-.087.56-.087.875.014.33.03.545.087.804h5.078c0-1.234-.215-2.496-.904-3.4-.56-.76-1.52-1.361-2.884-1.361-2.38 0-4.001 1.735-4.001 4.144 0 2.193 1.334 4.071 3.972 4.071 1.163 0 2.31-.4 3.056-1.29.402-.487.574-.933.674-1.19l-2.237-.157zm3.399 2.422h2.252v-7.756h-2.252v7.756zm2.64-5.362c.244-.302.573-.56 1.462-.56.23 0 .33.015.474.043v-2.02a2.859 2.859 0 0 0-.402-.03c-1.06 0-1.435.487-1.535.63v1.937zm10.141 3.785c-.459-.072-1.607-.287-1.607-2.323 0-.444 0-2.122 1.607-2.337v-1.778c-2.625.201-3.873 2.022-3.873 4.13 0 .817.244 3.942 3.873 4.128v-1.82zm.373 1.82c2.596-.2 3.83-2.164 3.83-4.214 0-1.75-.96-3.886-3.83-4.044v1.778c.989.115 1.563.875 1.563 2.266 0 2.007-1.076 2.28-1.563 2.394v1.82zm4.934-.243h2.238v-7.756h-2.238v7.756zm2.61-5.477c.13-.157.43-.53 1.062-.53 1.077 0 1.148.974 1.148 1.334v4.673h2.252v-4.774c-.014-.803-.043-1.893-1.048-2.61-.415-.3-.975-.502-1.635-.502-.817 0-1.29.286-1.778.645v1.764zm10.357-.63v4.014c.029 1.047.115 2.165 2.209 2.165.43 0 .674-.03 1.477-.1v-1.72c-.344.028-.43.028-.588.028-.846 0-.889-.216-.874-1.162v-3.225h1.462v-1.664h-1.462v-1.405h-2.224v1.405h-1.076v1.664h1.076zm8.047 4.53c-.46-.072-1.607-.287-1.607-2.323 0-.444 0-2.122 1.607-2.337v-1.778c-2.625.201-3.874 2.022-3.874 4.13 0 .817.244 3.942 3.874 4.128v-1.82zm.373 1.82c2.596-.2 3.83-2.164 3.83-4.214 0-1.75-.961-3.886-3.83-4.044v1.778c.99.115 1.563.875 1.563 2.266 0 2.007-1.075 2.28-1.563 2.394v1.82zm7.172-.257v-7.742h-2.238v7.756l2.238-.014zm.374-5.693c.157-.1.357-.244.774-.244.244 0 .646.072.874.402.244.33.259.731.259 1.506v4.043h2.237v-4.43c.015-.531.058-1.535 1.163-1.535 1.104 0 1.104 1.02 1.118 1.506v4.445h2.238v-4.374c-.014-1.548-.029-2.25-.703-2.895-.446-.43-1.047-.688-1.821-.688-1.464 0-2.11.931-2.367 1.304-.345-.903-1.163-1.304-2.124-1.304-.602 0-1.176.157-1.648.587v1.677zm13.611 4.13c-.458-.072-1.606-.287-1.606-2.323 0-.444 0-2.122 1.606-2.337v-1.778c-2.625.201-3.873 2.022-3.873 4.13 0 .817.244 3.942 3.873 4.128v-1.82zm.373 1.82c2.596-.2 3.83-2.164 3.83-4.214 0-1.75-.961-3.886-3.83-4.044v1.778c.99.115 1.564.875 1.564 2.266 0 2.007-1.076 2.28-1.564 2.394v1.82zm4.949-.243h2.252v-7.756h-2.252v7.756zm2.64-5.362c.243-.302.574-.56 1.463-.56.228 0 .33.015.474.043v-2.02a2.882 2.882 0 0 0-.402-.03c-1.063 0-1.435.487-1.536.63v1.937zm2.596 5.362h2.252v-7.756h-2.252v7.756zm2.64-5.362c.243-.302.573-.56 1.462-.56.23 0 .33.015.473.043v-2.02a2.867 2.867 0 0 0-.401-.03c-1.062 0-1.435.487-1.534.63v1.937zm6.095 3.785c-.459-.072-1.606-.287-1.606-2.323 0-.444 0-2.122 1.606-2.337v-1.778c-2.625.201-3.872 2.022-3.872 4.13 0 .817.243 3.942 3.872 4.128v-1.82zm.373 1.82c2.597-.2 3.83-2.164 3.83-4.214 0-1.75-.96-3.886-3.83-4.044v1.778c.99.115 1.564.875 1.564 2.266 0 2.007-1.076 2.28-1.564 2.394v1.82zm6.297-.243h2.023l-2.023-7.77h-2.265l2.265 7.77zm2.239-.574c.644-2.566.831-3.311 1.147-4.774.143.803.186 1.017.474 2.122l.817 3.226h1.692l-2.008-7.77h-1.95l-1.019 3.828.847 3.368zm4.518.574l2.28-7.77h-2.28l-.99 3.927.99 3.843z"/>
    </g>
</svg>
