<svg xmlns="http://www.w3.org/2000/svg" width="84" height="62" viewBox="0 0 84 62">
    <g fill="none" fill-rule="evenodd">
        <path fill="#FFC425" d="M40.173 4.402l-2.2-1.343-4.258 2.07 5.027 5.302 2.418.116-3.314-4.104zM50.603 40.526l-3.334 2.815 3.687.658 1.379 6.37 2.16-2.884-.698-5.69zM38.903 46.392l4.159 5.417-3.009 8.488 4.276-2.79 2.725-7.408-3.523-4.388zM29.789 52.466l-9.35 7.766 6.696.982 8.102-7.834-1.691-8.231-6.083-2.064zM19.85 32.362l3.892 5.447-3.352 9.799L7.026 49.25 1.881 42.05l13.272-.658zM0 24.737l9.725 6.684 9.19-6.095.111-5.843-8.667 4.528-9.937-7.13zM23.114 14.277l-10.405.514-2.912-8.607 3.946-3.777 3.078 6.92 8.217 1.024zM23.869.509l-.516 5.651 5.66 3.354 4.392-.796-5.167-3.682.588-4.97zM46.093 8.577l-2.12.101.028 2.855 3.031 3.894-.706-3.238 1.904-.914z"/>
        <path fill="#FFF" d="M40.451 10.503l-3.3-4.12 2.565-2.267.925.548-2.098 1.838 3.317 4.105zM51.916 50.81l-1.382-6.375-3.772-.683 1.01-.84 3.607.65 1.378 6.387zM38.377 46.476l4.117 5.423-3.136 8.846 1.409-.924 2.862-8.1-4.137-5.413zM29.223 52.28l-9.505 7.863 1.374.196 9.262-7.689-2.306-9.366-1.206-.393zM2.216 42.527l-.758-.98 13.38-.643 4.683-9.018.673.923-4.727 9.073zM.365 17.49l9.952 7.112 8.726-4.563-.026-1.121L10.4 23.42.448 16.257zM24.801 10.86l-8.325-1.068-3.14-7.04.82-.693 3.01 6.803 8.119 1.052zM28.293.126l-.591 5.147 5.05 3.59 1.326-.315L28.775 4.8 29.325 0zM46.278 14.493l-.42-3.249 2.103-.28.547.63-1.752.546.532 3.634z"/>
        <path fill="#FEFEFE" d="M30.003 16.764h10.78c5.93 0 8.568 2.21 8.568 8.243v4.447c0 5.808-1.872 8.555-7.8 8.555H30.002V16.764zm5.674 16.316h4.965c2.1 0 2.866-1.388 2.866-3.626v-4.447c0-2.748-.88-3.315-2.866-3.315h-4.965V33.08zM77.523 16.764l-3.206 16.372h-.199l-3.8-16.372h-5.902l-3.999 16.372h-.2l-3.063-16.372h-5.759l4.596 21.244h8.114l3.091-13.313h.227l2.895 13.313h8.197l4.71-21.244z"/>
    </g>
</svg>
